# xmcd
# 
# Track frame offsets:
#     150
#     18895
#     45500
#     65575
#     92180
#     110925
#     137530
# 
# Disc length: 2098
# 
# Revision: 0
# Processed by: cddbd v1.5.2PL0 Copyright (c) Steve Scherf et al.
# Submitted via: fre:ac v1.0.27
# 
DISCID=5b083007
DTITLE=May'n - 天使よ故郷を聞け
DYEAR=2018
DGENRE=Anime
TTITLE0=天使よ故郷を聞け
TTITLE1=HOME
TTITLE2=このままじゃ、だめなんだ。このままじゃ、いやなんだ。
TTITLE3=HOME 中国語Ver.
TTITLE4=天使よ故郷を聞け(without May'n)
TTITLE5=HOME(without May'n)
TTITLE6=このままじゃ、だめなんだ。このままじゃ、いやなんだ。(without May'n)
EXTD=
EXTT0=
EXTT1=
EXTT2=
EXTT3=
EXTT4=
EXTT5=
EXTT6=
PLAYORDER=
